<svg width="18" height="19" viewBox="0 0 18 19" fill="none" xmlns="http://www.w3.org/2000/svg">
<path d="M7.33335 10.5214H1.50002C1.27901 10.5214 1.06704 10.6175 0.910765 10.7883C0.754484 10.9592 0.666687 11.191 0.666687 11.4327V17.8116C0.666687 18.0532 0.754484 18.285 0.910765 18.4559C1.06704 18.6268 1.27901 18.7228 1.50002 18.7228H7.33335C7.55437 18.7228 7.76633 18.6268 7.92261 18.4559C8.07889 18.285 8.16669 18.0532 8.16669 17.8116V11.4327C8.16669 11.191 8.07889 10.9592 7.92261 10.7883C7.76633 10.6175 7.55437 10.5214 7.33335 10.5214ZM6.50002 16.9003H2.33335V12.344H6.50002V16.9003ZM16.5 0.497528H10.6667C10.4457 0.497528 10.2337 0.593536 10.0774 0.764431C9.92115 0.935327 9.83335 1.16711 9.83335 1.40879V7.78765C9.83335 8.02933 9.92115 8.26111 10.0774 8.43201C10.2337 8.60291 10.4457 8.69891 10.6667 8.69891H16.5C16.721 8.69891 16.933 8.60291 17.0893 8.43201C17.2456 8.26111 17.3334 8.02933 17.3334 7.78765V1.40879C17.3334 1.16711 17.2456 0.935327 17.0893 0.764431C16.933 0.593536 16.721 0.497528 16.5 0.497528V0.497528ZM15.6667 6.87638H11.5V2.32006H15.6667V6.87638ZM16.5 10.5214H10.6667C10.4457 10.5214 10.2337 10.6175 10.0774 10.7883C9.92115 10.9592 9.83335 11.191 9.83335 11.4327V17.8116C9.83335 18.0532 9.92115 18.285 10.0774 18.4559C10.2337 18.6268 10.4457 18.7228 10.6667 18.7228H16.5C16.721 18.7228 16.933 18.6268 17.0893 18.4559C17.2456 18.285 17.3334 18.0532 17.3334 17.8116V11.4327C17.3334 11.191 17.2456 10.9592 17.0893 10.7883C16.933 10.6175 16.721 10.5214 16.5 10.5214ZM15.6667 16.9003H11.5V12.344H15.6667V16.9003ZM7.33335 0.497528H1.50002C1.27901 0.497528 1.06704 0.593536 0.910765 0.764431C0.754484 0.935327 0.666687 1.16711 0.666687 1.40879V7.78765C0.666687 8.02933 0.754484 8.26111 0.910765 8.43201C1.06704 8.60291 1.27901 8.69891 1.50002 8.69891H7.33335C7.55437 8.69891 7.76633 8.60291 7.92261 8.43201C8.07889 8.26111 8.16669 8.02933 8.16669 7.78765V1.40879C8.16669 1.16711 8.07889 0.935327 7.92261 0.764431C7.76633 0.593536 7.55437 0.497528 7.33335 0.497528V0.497528ZM6.50002 6.87638H2.33335V2.32006H6.50002V6.87638Z" fill="#00DB99"/>
</svg>
