<svg width="20" height="21" viewBox="0 0 20 21" fill="none" xmlns="http://www.w3.org/2000/svg">
<path d="M7.50001 9.08418H10C10.2652 9.08418 10.5196 8.97882 10.7071 8.79128C10.8947 8.60375 11 8.34939 11 8.08417C11 7.81896 10.8947 7.5646 10.7071 7.37707C10.5196 7.18953 10.2652 7.08417 10 7.08417H9.00001V6.58417C9.00001 6.31896 8.89465 6.0646 8.70711 5.87707C8.51958 5.68953 8.26522 5.58417 8.00001 5.58417C7.73479 5.58417 7.48044 5.68953 7.2929 5.87707C7.10537 6.0646 7.00001 6.31896 7.00001 6.58417V7.13417C6.39243 7.25755 5.85237 7.60228 5.48466 8.10144C5.11696 8.6006 4.94785 9.21859 5.01015 9.83542C5.07246 10.4523 5.36174 11.0239 5.82184 11.4395C6.28194 11.855 6.88003 12.0848 7.50001 12.0842H8.50001C8.63262 12.0842 8.75979 12.1369 8.85356 12.2306C8.94733 12.3244 9.00001 12.4516 9.00001 12.5842C9.00001 12.7168 8.94733 12.844 8.85356 12.9377C8.75979 13.0315 8.63262 13.0842 8.50001 13.0842H6.00001C5.73479 13.0842 5.48044 13.1895 5.2929 13.3771C5.10537 13.5646 5.00001 13.819 5.00001 14.0842C5.00001 14.3494 5.10537 14.6037 5.2929 14.7913C5.48044 14.9788 5.73479 15.0842 6.00001 15.0842H7.00001V15.5842C7.00001 15.8494 7.10537 16.1037 7.2929 16.2913C7.48044 16.4788 7.73479 16.5842 8.00001 16.5842C8.26522 16.5842 8.51958 16.4788 8.70711 16.2913C8.89465 16.1037 9.00001 15.8494 9.00001 15.5842V15.0342C9.60758 14.9108 10.1476 14.5661 10.5154 14.0669C10.8831 13.5677 11.0522 12.9498 10.9899 12.3329C10.9276 11.7161 10.6383 11.1444 10.1782 10.7289C9.71807 10.3133 9.11998 10.0836 8.50001 10.0842H7.50001C7.3674 10.0842 7.24022 10.0315 7.14645 9.93773C7.05269 9.84396 7.00001 9.71678 7.00001 9.58418C7.00001 9.45157 7.05269 9.32439 7.14645 9.23062C7.24022 9.13685 7.3674 9.08418 7.50001 9.08418ZM19 10.5842H16V1.58417C16.0007 1.40796 15.9548 1.2347 15.867 1.08192C15.7792 0.929143 15.6526 0.802279 15.5 0.714175C15.348 0.626407 15.1755 0.5802 15 0.5802C14.8245 0.5802 14.652 0.626407 14.5 0.714175L11.5 2.43417L8.50001 0.714175C8.34799 0.626407 8.17554 0.5802 8.00001 0.5802C7.82447 0.5802 7.65203 0.626407 7.50001 0.714175L4.50001 2.43417L1.50001 0.714175C1.34799 0.626407 1.17554 0.5802 1.00001 0.5802C0.824471 0.5802 0.652027 0.626407 0.500008 0.714175C0.347404 0.802279 0.220789 0.929143 0.132986 1.08192C0.0451828 1.2347 -0.000691685 1.40796 7.88288e-06 1.58417V17.5842C7.88288e-06 18.3798 0.316078 19.1429 0.878688 19.7055C1.4413 20.2681 2.20436 20.5842 3.00001 20.5842H17C17.7957 20.5842 18.5587 20.2681 19.1213 19.7055C19.6839 19.1429 20 18.3798 20 17.5842V11.5842C20 11.319 19.8947 11.0646 19.7071 10.8771C19.5196 10.6895 19.2652 10.5842 19 10.5842ZM3.00001 18.5842C2.73479 18.5842 2.48044 18.4788 2.2929 18.2913C2.10536 18.1037 2.00001 17.8494 2.00001 17.5842V3.31417L4.00001 4.45417C4.15435 4.53479 4.32589 4.57689 4.50001 4.57689C4.67413 4.57689 4.84567 4.53479 5.00001 4.45417L8.00001 2.73417L11 4.45417C11.1543 4.53479 11.3259 4.57689 11.5 4.57689C11.6741 4.57689 11.8457 4.53479 12 4.45417L14 3.31417V17.5842C14.0027 17.9253 14.0636 18.2635 14.18 18.5842H3.00001ZM18 17.5842C18 17.8494 17.8947 18.1037 17.7071 18.2913C17.5196 18.4788 17.2652 18.5842 17 18.5842C16.7348 18.5842 16.4804 18.4788 16.2929 18.2913C16.1054 18.1037 16 17.8494 16 17.5842V12.5842H18V17.5842Z" fill="#717986"/>
</svg>
