<svg width="20" height="23" viewBox="0 0 20 23" fill="none" xmlns="http://www.w3.org/2000/svg">
<path d="M19 13.2993H18V1.2604C18 0.970138 17.8946 0.69176 17.7071 0.486511C17.5196 0.281262 17.2652 0.165955 17 0.165955H3C2.73478 0.165955 2.48043 0.281262 2.29289 0.486511C2.10536 0.69176 2 0.970138 2 1.2604V13.2993H1C0.734784 13.2993 0.48043 13.4146 0.292893 13.6199C0.105357 13.8251 0 14.1035 0 14.3938C0 14.6841 0.105357 14.9624 0.292893 15.1677C0.48043 15.3729 0.734784 15.4882 1 15.4882H9V16.7469L4.45 20.0302C4.26333 20.1567 4.11988 20.3468 4.04177 20.5714C3.96366 20.7959 3.95523 21.0424 4.01779 21.2727C4.08035 21.503 4.21042 21.7044 4.38793 21.8457C4.56544 21.9871 4.78053 22.0606 5 22.0549C5.1966 22.0574 5.38896 21.9923 5.55 21.8689L9 19.3735V20.9605C9 21.2507 9.10536 21.5291 9.29289 21.7344C9.48043 21.9396 9.73478 22.0549 10 22.0549C10.2652 22.0549 10.5196 21.9396 10.7071 21.7344C10.8946 21.5291 11 21.2507 11 20.9605V19.3735L14.45 21.8689C14.611 21.9923 14.8034 22.0574 15 22.0549C15.2136 22.0531 15.4212 21.9765 15.5921 21.8362C15.7631 21.696 15.8885 21.4995 15.95 21.2755C16.0115 21.0516 16.0058 20.812 15.9338 20.5918C15.8619 20.3717 15.7273 20.1825 15.55 20.0521L11 16.7687V15.4882H19C19.2652 15.4882 19.5196 15.3729 19.7071 15.1677C19.8946 14.9624 20 14.6841 20 14.3938C20 14.1035 19.8946 13.8251 19.7071 13.6199C19.5196 13.4146 19.2652 13.2993 19 13.2993ZM16 13.2993H4V2.35485H16V13.2993ZM7 11.1104C7.16471 11.1095 7.32665 11.0641 7.47145 10.9781C7.61625 10.8922 7.73941 10.7685 7.83 10.6179L9.16 8.42904L10.29 9.67671C10.3949 9.79226 10.5221 9.88071 10.6622 9.93562C10.8023 9.99053 10.9519 10.0105 11.1 9.9941C11.2474 9.9764 11.3894 9.92302 11.5157 9.83784C11.6419 9.75266 11.7493 9.63781 11.83 9.5016L13.83 6.21826C13.9478 5.97795 13.9793 5.69818 13.9185 5.43373C13.8577 5.16929 13.7089 4.93922 13.5012 4.78859C13.2935 4.63796 13.0419 4.57762 12.7956 4.61938C12.5494 4.66114 12.3263 4.80199 12.17 5.01436L10.84 7.20326L9.71 5.95559C9.60508 5.84005 9.47791 5.75159 9.33778 5.69668C9.19765 5.64177 9.04809 5.62179 8.9 5.6382C8.75256 5.6559 8.61057 5.70928 8.48431 5.79446C8.35806 5.87964 8.25069 5.9945 8.17 6.1307L6.17 9.41405C6.02527 9.65533 5.97349 9.94943 6.02593 10.2323C6.07837 10.5152 6.23079 10.7639 6.45 10.9244C6.61104 11.0478 6.8034 11.1129 7 11.1104V11.1104Z" fill="#717986"/>
</svg>
