<svg width="20" height="17" viewBox="0 0 20 17" fill="none" xmlns="http://www.w3.org/2000/svg">
<path d="M10.25 8.50065C10.6946 8.07941 11.0513 7.55841 11.2957 6.97301C11.5401 6.38761 11.6667 5.75151 11.6666 5.10787C11.6666 3.89844 11.2277 2.73854 10.4463 1.88334C9.66486 1.02814 8.60505 0.54769 7.49998 0.54769C6.39491 0.54769 5.3351 1.02814 4.5537 1.88334C3.7723 2.73854 3.33331 3.89844 3.33331 5.10787C3.33331 5.75151 3.45981 6.38761 3.70425 6.97301C3.94869 7.55841 4.30533 8.07941 4.74998 8.50065C3.58343 9.07878 2.5937 10.0124 1.89913 11.1898C1.20456 12.3673 0.83454 13.7388 0.833313 15.1403C0.833313 15.3822 0.92111 15.6141 1.07739 15.7852C1.23367 15.9562 1.44563 16.0523 1.66665 16.0523C1.88766 16.0523 2.09962 15.9562 2.2559 15.7852C2.41218 15.6141 2.49998 15.3822 2.49998 15.1403C2.49998 13.689 3.02676 12.2971 3.96445 11.2708C4.90213 10.2446 6.1739 9.66806 7.49998 9.66806C8.82606 9.66806 10.0978 10.2446 11.0355 11.2708C11.9732 12.2971 12.5 13.689 12.5 15.1403C12.5 15.3822 12.5878 15.6141 12.7441 15.7852C12.9003 15.9562 13.1123 16.0523 13.3333 16.0523C13.5543 16.0523 13.7663 15.9562 13.9226 15.7852C14.0788 15.6141 14.1666 15.3822 14.1666 15.1403C14.1654 13.7388 13.7954 12.3673 13.1008 11.1898C12.4063 10.0124 11.4165 9.07878 10.25 8.50065V8.50065ZM7.49998 7.84399C7.00553 7.84399 6.52218 7.68352 6.11105 7.38287C5.69993 7.08222 5.3795 6.6549 5.19028 6.15494C5.00106 5.65498 4.95155 5.10484 5.04802 4.57409C5.14448 4.04333 5.38258 3.5558 5.73221 3.17315C6.08184 2.7905 6.5273 2.52991 7.01225 2.42434C7.49721 2.31876 7.99987 2.37295 8.45669 2.58004C8.9135 2.78713 9.30395 3.13782 9.57865 3.58777C9.85336 4.03772 9.99998 4.56672 9.99998 5.10787C9.99998 5.83354 9.73659 6.52948 9.26775 7.0426C8.79891 7.55572 8.16302 7.84399 7.49998 7.84399ZM15.6166 8.13584C16.15 7.47856 16.4983 6.6666 16.6198 5.79768C16.7413 4.92877 16.6308 4.03995 16.3015 3.2382C15.9722 2.43645 15.4381 1.75595 14.7637 1.27862C14.0893 0.801281 13.3032 0.547454 12.5 0.54769C12.279 0.54769 12.067 0.643779 11.9107 0.814819C11.7544 0.985859 11.6666 1.21784 11.6666 1.45973C11.6666 1.70161 11.7544 1.93359 11.9107 2.10463C12.067 2.27567 12.279 2.37176 12.5 2.37176C13.163 2.37176 13.7989 2.66003 14.2677 3.17315C14.7366 3.68627 15 4.38221 15 5.10787C14.9988 5.58691 14.8827 6.05722 14.6634 6.47175C14.444 6.88629 14.129 7.23053 13.75 7.47005C13.6264 7.54805 13.5232 7.65945 13.4503 7.79359C13.3773 7.92773 13.3371 8.08011 13.3333 8.23616C13.3298 8.39099 13.3624 8.54424 13.428 8.68147C13.4936 8.8187 13.5901 8.93538 13.7083 9.02051L14.0333 9.25764L14.1416 9.32149C15.1461 9.84291 15.9936 10.6676 16.5841 11.6985C17.1747 12.7294 17.4838 13.9236 17.475 15.1403C17.475 15.3822 17.5628 15.6141 17.7191 15.7852C17.8753 15.9562 18.0873 16.0523 18.3083 16.0523C18.5293 16.0523 18.7413 15.9562 18.8976 15.7852C19.0538 15.6141 19.1416 15.3822 19.1416 15.1403C19.1485 13.7407 18.8282 12.3624 18.2112 11.1365C17.5942 9.91054 16.7011 8.87761 15.6166 8.13584V8.13584Z" fill="#717986"/>
</svg>
